<svg xmlns="http://www.w3.org/2000/svg" xmlns:xlink="http://www.w3.org/1999/xlink" width="1000" color="black" zoomAndPan="magnify" viewBox="0 0 750 37.5" height="50" preserveAspectRatio="xMidYMid meet" version="1.0"><defs><clipPath id="f538a6eae5"><path d="M 4.933594 0 L 745.066406 0 L 745.066406 37.007812 L 4.933594 37.007812 Z M 4.933594 0 " clip-rule="nonzero"/></clipPath><clipPath id="6d757ba8ef"><path d="M 67.105469 0 L 187.140625 0 L 187.140625 37.007812 L 67.105469 37.007812 Z M 67.105469 0 " clip-rule="nonzero"/></clipPath><clipPath id="d35898b210"><path d="M 127.121094 99.191406 L 187.140625 -48.609375 L 67.105469 -48.609375 Z M 127.121094 99.191406 " clip-rule="nonzero"/></clipPath><clipPath id="c941cb2309"><path d="M 4.933594 0 L 129.273438 0 L 129.273438 37.007812 L 4.933594 37.007812 Z M 4.933594 0 " clip-rule="nonzero"/></clipPath><clipPath id="a4f4fd1356"><path d="M 6.414062 -14.714844 L 127.792969 -14.714844 C 128.1875 -14.714844 128.5625 -14.558594 128.839844 -14.28125 C 129.117188 -14.003906 129.273438 -13.625 129.273438 -13.234375 L 129.273438 63.816406 C 129.273438 64.207031 129.117188 64.582031 128.839844 64.863281 C 128.5625 65.140625 128.1875 65.296875 127.792969 65.296875 L 6.414062 65.296875 C 6.023438 65.296875 5.644531 65.140625 5.367188 64.863281 C 5.089844 64.582031 4.933594 64.207031 4.933594 63.816406 L 4.933594 -13.234375 C 4.933594 -13.625 5.089844 -14.003906 5.367188 -14.28125 C 5.644531 -14.558594 6.023438 -14.714844 6.414062 -14.714844 Z M 6.414062 -14.714844 " clip-rule="nonzero"/></clipPath><clipPath id="4359ca31cc"><path d="M 114 0 L 218 0 L 218 37.007812 L 114 37.007812 Z M 114 0 " clip-rule="nonzero"/></clipPath></defs><g clip-path="url(#f538a6eae5)"><path fill="#ffffff" d="M 4.933594 0 L 745.066406 0 L 745.066406 37.007812 L 4.933594 37.007812 Z M 4.933594 0 " fill-opacity="1" fill-rule="nonzero"/><path fill="#ffffff" d="M 4.933594 0 L 745.066406 0 L 745.066406 37.007812 L 4.933594 37.007812 Z M 4.933594 0 " fill-opacity="1" fill-rule="nonzero"/></g><g clip-path="url(#6d757ba8ef)"><g clip-path="url(#d35898b210)"><path fill="#FF4723" d="M 67.105469 -48.609375 L 187.140625 -48.609375 L 187.140625 99.191406 L 67.105469 99.191406 Z M 67.105469 -48.609375 " fill-opacity="1" fill-rule="nonzero"/></g></g><g clip-path="url(#c941cb2309)"><g clip-path="url(#a4f4fd1356)"><path fill="#FF4723" d="M 4.933594 -14.714844 L 129.273438 -14.714844 L 129.273438 65.296875 L 4.933594 65.296875 Z M 4.933594 -14.714844 " fill-opacity="1" fill-rule="nonzero"/></g></g><g clip-path="url(#4359ca31cc)"><path stroke-linecap="butt" transform="matrix(0.603641, -1.410404, 1.420199, 0.607833, 146.849982, 64.070868)" fill="none" stroke-linejoin="miter" d="M 0.00108835 2.00026 L 54.387172 1.999183 " stroke="#FF4723" stroke-width="4" stroke-opacity="1" stroke-miterlimit="4"/></g></svg>