<svg xmlns="http://www.w3.org/2000/svg" xmlns:xlink="http://www.w3.org/1999/xlink" width="1000" zoomAndPan="magnify" viewBox="0 0 750 749.999995" height="1000" preserveAspectRatio="xMidYMid meet" version="1.0"><defs><filter x="0%" y="0%" width="100%" height="100%" id="8877e34077"><feColorMatrix values="0 0 0 0 1 0 0 0 0 1 0 0 0 0 1 0 0 0 1 0" color-interpolation-filters="sRGB"/></filter><mask id="274f561411"><g filter="url(#8877e34077)"><rect x="-75" width="900" fill="#000000" y="-74.999999" height="899.999994" fill-opacity="0.8"/></g></mask><clipPath id="a4c7af6d71"><path d="M 357.648438 290.382812 L 749.546875 290.382812 L 749.546875 749.992188 L 357.648438 749.992188 Z M 357.648438 290.382812 " clip-rule="nonzero"/></clipPath><clipPath id="d2f8c9ba50"><path d="M 489 75 L 750 75 L 750 750 L 489 750 Z M 489 75 " clip-rule="nonzero"/></clipPath><clipPath id="4a42678630"><path d="M 217.839844 307.257812 L 706.210938 75.082031 L 977.992188 646.765625 L 489.625 878.941406 Z M 217.839844 307.257812 " clip-rule="nonzero"/></clipPath><clipPath id="0deea8225f"><path d="M 978.273438 646.917969 L 489.902344 879.09375 L 218.121094 307.410156 L 706.488281 75.234375 Z M 978.273438 646.917969 " clip-rule="nonzero"/></clipPath><clipPath id="adc8ff5616"><path d="M 645 0 L 750 0 L 750 750 L 645 750 Z M 645 0 " clip-rule="nonzero"/></clipPath><clipPath id="2fe9f576e3"><path d="M 225.515625 287.609375 L 646.378906 -117.628906 L 1120.808594 375.089844 L 699.941406 780.332031 Z M 225.515625 287.609375 " clip-rule="nonzero"/></clipPath><clipPath id="28a0c4d7e6"><path d="M 1120.527344 375.035156 L 699.660156 780.277344 L 225.234375 287.554688 L 646.097656 -117.683594 Z M 1120.527344 375.035156 " clip-rule="nonzero"/></clipPath><clipPath id="0630876bf1"><path d="M 444 0 L 750 0 L 750 750 L 444 750 Z M 444 0 " clip-rule="nonzero"/></clipPath><clipPath id="d4f9919afb"><path d="M 173.382812 218 L 661.753906 -14.175781 L 933.535156 557.507812 L 445.167969 789.683594 Z M 173.382812 218 " clip-rule="nonzero"/></clipPath><clipPath id="7dcbeb125f"><path d="M 933.816406 557.660156 L 445.445312 789.835938 L 173.664062 218.152344 L 662.03125 -14.023438 Z M 933.816406 557.660156 " clip-rule="nonzero"/></clipPath><clipPath id="c4f2a3bd87"><path d="M 69 727 L 86 727 L 86 736 L 69 736 Z M 69 727 " clip-rule="nonzero"/></clipPath><clipPath id="36d09c379c"><path d="M 43.984375 653.285156 L 107.425781 709.472656 L 43.28125 781.902344 L -20.164062 725.710938 Z M 43.984375 653.285156 " clip-rule="nonzero"/></clipPath><clipPath id="0317099c74"><path d="M 43.984375 653.285156 L 107.425781 709.472656 L 43.28125 781.902344 L -20.164062 725.710938 Z M 43.984375 653.285156 " clip-rule="nonzero"/></clipPath><clipPath id="0e31a37a25"><path d="M 22 697 L 39 697 L 39 707 L 22 707 Z M 22 697 " clip-rule="nonzero"/></clipPath><clipPath id="37254b44ed"><path d="M 43.984375 653.285156 L 107.425781 709.472656 L 43.28125 781.902344 L -20.164062 725.710938 Z M 43.984375 653.285156 " clip-rule="nonzero"/></clipPath><clipPath id="d07f3af026"><path d="M 43.984375 653.285156 L 107.425781 709.472656 L 43.28125 781.902344 L -20.164062 725.710938 Z M 43.984375 653.285156 " clip-rule="nonzero"/></clipPath><clipPath id="75ed76e5f5"><path d="M 69 709 L 82 709 L 82 717 L 69 717 Z M 69 709 " clip-rule="nonzero"/></clipPath><clipPath id="b1735bce89"><path d="M 43.984375 653.285156 L 107.425781 709.472656 L 43.28125 781.902344 L -20.164062 725.710938 Z M 43.984375 653.285156 " clip-rule="nonzero"/></clipPath><clipPath id="367cc873b1"><path d="M 43.984375 653.285156 L 107.425781 709.472656 L 43.28125 781.902344 L -20.164062 725.710938 Z M 43.984375 653.285156 " clip-rule="nonzero"/></clipPath><clipPath id="4f04ac8e02"><path d="M 41 742 L 54 742 L 54 750 L 41 750 Z M 41 742 " clip-rule="nonzero"/></clipPath><clipPath id="a7c155f405"><path d="M 43.984375 653.285156 L 107.425781 709.472656 L 43.28125 781.902344 L -20.164062 725.710938 Z M 43.984375 653.285156 " clip-rule="nonzero"/></clipPath><clipPath id="43ca55fe69"><path d="M 43.984375 653.285156 L 107.425781 709.472656 L 43.28125 781.902344 L -20.164062 725.710938 Z M 43.984375 653.285156 " clip-rule="nonzero"/></clipPath><clipPath id="1eb3739b29"><path d="M 45 691 L 58 691 L 58 699 L 45 699 Z M 45 691 " clip-rule="nonzero"/></clipPath><clipPath id="cb984c5bbc"><path d="M 43.984375 653.285156 L 107.425781 709.472656 L 43.28125 781.902344 L -20.164062 725.710938 Z M 43.984375 653.285156 " clip-rule="nonzero"/></clipPath><clipPath id="56c0a23877"><path d="M 43.984375 653.285156 L 107.425781 709.472656 L 43.28125 781.902344 L -20.164062 725.710938 Z M 43.984375 653.285156 " clip-rule="nonzero"/></clipPath><clipPath id="1d7c0e2eac"><path d="M 83 717 L 94 717 L 94 723 L 83 723 Z M 83 717 " clip-rule="nonzero"/></clipPath><clipPath id="91fa725fbc"><path d="M 43.984375 653.285156 L 107.425781 709.472656 L 43.28125 781.902344 L -20.164062 725.710938 Z M 43.984375 653.285156 " clip-rule="nonzero"/></clipPath><clipPath id="85cdc41135"><path d="M 43.984375 653.285156 L 107.425781 709.472656 L 43.28125 781.902344 L -20.164062 725.710938 Z M 43.984375 653.285156 " clip-rule="nonzero"/></clipPath><clipPath id="1afccfc101"><path d="M 14 684 L 25 684 L 25 690 L 14 690 Z M 14 684 " clip-rule="nonzero"/></clipPath><clipPath id="c1d4d23d15"><path d="M 43.984375 653.285156 L 107.425781 709.472656 L 43.28125 781.902344 L -20.164062 725.710938 Z M 43.984375 653.285156 " clip-rule="nonzero"/></clipPath><clipPath id="f87276dac9"><path d="M 43.984375 653.285156 L 107.425781 709.472656 L 43.28125 781.902344 L -20.164062 725.710938 Z M 43.984375 653.285156 " clip-rule="nonzero"/></clipPath><clipPath id="cb7301c6e0"><path d="M 64 687 L 75 687 L 75 694 L 64 694 Z M 64 687 " clip-rule="nonzero"/></clipPath><clipPath id="82fcc0cdf4"><path d="M 43.984375 653.285156 L 107.425781 709.472656 L 43.28125 781.902344 L -20.164062 725.710938 Z M 43.984375 653.285156 " clip-rule="nonzero"/></clipPath><clipPath id="4386f790d1"><path d="M 43.984375 653.285156 L 107.425781 709.472656 L 43.28125 781.902344 L -20.164062 725.710938 Z M 43.984375 653.285156 " clip-rule="nonzero"/></clipPath><clipPath id="814e43aa0d"><path d="M 21 742 L 31 742 L 31 748 L 21 748 Z M 21 742 " clip-rule="nonzero"/></clipPath><clipPath id="425e08b600"><path d="M 43.984375 653.285156 L 107.425781 709.472656 L 43.28125 781.902344 L -20.164062 725.710938 Z M 43.984375 653.285156 " clip-rule="nonzero"/></clipPath><clipPath id="62070dcb20"><path d="M 43.984375 653.285156 L 107.425781 709.472656 L 43.28125 781.902344 L -20.164062 725.710938 Z M 43.984375 653.285156 " clip-rule="nonzero"/></clipPath><clipPath id="5d81ea4ce4"><path d="M 65 741 L 76 741 L 76 747 L 65 747 Z M 65 741 " clip-rule="nonzero"/></clipPath><clipPath id="7c322d8ff0"><path d="M 43.984375 653.285156 L 107.425781 709.472656 L 43.28125 781.902344 L -20.164062 725.710938 Z M 43.984375 653.285156 " clip-rule="nonzero"/></clipPath><clipPath id="7a89202f83"><path d="M 43.984375 653.285156 L 107.425781 709.472656 L 43.28125 781.902344 L -20.164062 725.710938 Z M 43.984375 653.285156 " clip-rule="nonzero"/></clipPath><clipPath id="bda35471d1"><path d="M 0 731 L 5 731 L 5 737 L 0 737 Z M 0 731 " clip-rule="nonzero"/></clipPath><clipPath id="9a4398264d"><path d="M 43.984375 653.285156 L 107.425781 709.472656 L 43.28125 781.902344 L -20.164062 725.710938 Z M 43.984375 653.285156 " clip-rule="nonzero"/></clipPath><clipPath id="9a1a8fbc27"><path d="M 43.984375 653.285156 L 107.425781 709.472656 L 43.28125 781.902344 L -20.164062 725.710938 Z M 43.984375 653.285156 " clip-rule="nonzero"/></clipPath><clipPath id="e913f5aadc"><path d="M 33 732 L 43 732 L 43 738 L 33 738 Z M 33 732 " clip-rule="nonzero"/></clipPath><clipPath id="cf215cd4ae"><path d="M 43.984375 653.285156 L 107.425781 709.472656 L 43.28125 781.902344 L -20.164062 725.710938 Z M 43.984375 653.285156 " clip-rule="nonzero"/></clipPath><clipPath id="9dd6e5abe4"><path d="M 43.984375 653.285156 L 107.425781 709.472656 L 43.28125 781.902344 L -20.164062 725.710938 Z M 43.984375 653.285156 " clip-rule="nonzero"/></clipPath><clipPath id="2fd5e881c8"><path d="M 93 706 L 107 706 L 107 713 L 93 713 Z M 93 706 " clip-rule="nonzero"/></clipPath><clipPath id="ed6d1f845f"><path d="M 43.984375 653.285156 L 107.425781 709.472656 L 43.28125 781.902344 L -20.164062 725.710938 Z M 43.984375 653.285156 " clip-rule="nonzero"/></clipPath><clipPath id="5cdd0f48b1"><path d="M 43.984375 653.285156 L 107.425781 709.472656 L 43.28125 781.902344 L -20.164062 725.710938 Z M 43.984375 653.285156 " clip-rule="nonzero"/></clipPath><clipPath id="9a81057135"><path d="M 14 726 L 27 726 L 27 733 L 14 733 Z M 14 726 " clip-rule="nonzero"/></clipPath><clipPath id="2725e7c580"><path d="M 43.984375 653.285156 L 107.425781 709.472656 L 43.28125 781.902344 L -20.164062 725.710938 Z M 43.984375 653.285156 " clip-rule="nonzero"/></clipPath><clipPath id="3b262440f7"><path d="M 43.984375 653.285156 L 107.425781 709.472656 L 43.28125 781.902344 L -20.164062 725.710938 Z M 43.984375 653.285156 " clip-rule="nonzero"/></clipPath><clipPath id="bcf02d2984"><path d="M 51 732 L 65 732 L 65 739 L 51 739 Z M 51 732 " clip-rule="nonzero"/></clipPath><clipPath id="0ef5594929"><path d="M 43.984375 653.285156 L 107.425781 709.472656 L 43.28125 781.902344 L -20.164062 725.710938 Z M 43.984375 653.285156 " clip-rule="nonzero"/></clipPath><clipPath id="16777189c0"><path d="M 43.984375 653.285156 L 107.425781 709.472656 L 43.28125 781.902344 L -20.164062 725.710938 Z M 43.984375 653.285156 " clip-rule="nonzero"/></clipPath><clipPath id="8230cb2b5d"><path d="M 76 696 L 89 696 L 89 704 L 76 704 Z M 76 696 " clip-rule="nonzero"/></clipPath><clipPath id="b6df99b576"><path d="M 43.984375 653.285156 L 107.425781 709.472656 L 43.28125 781.902344 L -20.164062 725.710938 Z M 43.984375 653.285156 " clip-rule="nonzero"/></clipPath><clipPath id="dca47f50cc"><path d="M 43.984375 653.285156 L 107.425781 709.472656 L 43.28125 781.902344 L -20.164062 725.710938 Z M 43.984375 653.285156 " clip-rule="nonzero"/></clipPath><clipPath id="eb6c861f8b"><path d="M 55 701 L 67 701 L 67 709 L 55 709 Z M 55 701 " clip-rule="nonzero"/></clipPath><clipPath id="73af3d70ff"><path d="M 43.984375 653.285156 L 107.425781 709.472656 L 43.28125 781.902344 L -20.164062 725.710938 Z M 43.984375 653.285156 " clip-rule="nonzero"/></clipPath><clipPath id="e938a04b95"><path d="M 43.984375 653.285156 L 107.425781 709.472656 L 43.28125 781.902344 L -20.164062 725.710938 Z M 43.984375 653.285156 " clip-rule="nonzero"/></clipPath><clipPath id="07229b7c5f"><path d="M 41 679 L 53 679 L 53 687 L 41 687 Z M 41 679 " clip-rule="nonzero"/></clipPath><clipPath id="339ceb45aa"><path d="M 43.984375 653.285156 L 107.425781 709.472656 L 43.28125 781.902344 L -20.164062 725.710938 Z M 43.984375 653.285156 " clip-rule="nonzero"/></clipPath><clipPath id="ff9b596f54"><path d="M 43.984375 653.285156 L 107.425781 709.472656 L 43.28125 781.902344 L -20.164062 725.710938 Z M 43.984375 653.285156 " clip-rule="nonzero"/></clipPath><clipPath id="da993d4146"><path d="M 55 717 L 68 717 L 68 725 L 55 725 Z M 55 717 " clip-rule="nonzero"/></clipPath><clipPath id="ce2e06466d"><path d="M 43.984375 653.285156 L 107.425781 709.472656 L 43.28125 781.902344 L -20.164062 725.710938 Z M 43.984375 653.285156 " clip-rule="nonzero"/></clipPath><clipPath id="5da12c835b"><path d="M 43.984375 653.285156 L 107.425781 709.472656 L 43.28125 781.902344 L -20.164062 725.710938 Z M 43.984375 653.285156 " clip-rule="nonzero"/></clipPath><clipPath id="610e197fc9"><path d="M 6 710 L 19 710 L 19 718 L 6 718 Z M 6 710 " clip-rule="nonzero"/></clipPath><clipPath id="d07241aa48"><path d="M 43.984375 653.285156 L 107.425781 709.472656 L 43.28125 781.902344 L -20.164062 725.710938 Z M 43.984375 653.285156 " clip-rule="nonzero"/></clipPath><clipPath id="5f20862351"><path d="M 43.984375 653.285156 L 107.425781 709.472656 L 43.28125 781.902344 L -20.164062 725.710938 Z M 43.984375 653.285156 " clip-rule="nonzero"/></clipPath><clipPath id="eed34ba457"><path d="M 40 706 L 53 706 L 53 714 L 40 714 Z M 40 706 " clip-rule="nonzero"/></clipPath><clipPath id="773431764a"><path d="M 43.984375 653.285156 L 107.425781 709.472656 L 43.28125 781.902344 L -20.164062 725.710938 Z M 43.984375 653.285156 " clip-rule="nonzero"/></clipPath><clipPath id="140cb49347"><path d="M 43.984375 653.285156 L 107.425781 709.472656 L 43.28125 781.902344 L -20.164062 725.710938 Z M 43.984375 653.285156 " clip-rule="nonzero"/></clipPath><clipPath id="bafd620afc"><path d="M 39 721 L 51 721 L 51 727 L 39 727 Z M 39 721 " clip-rule="nonzero"/></clipPath><clipPath id="8796cc6b2f"><path d="M 43.984375 653.285156 L 107.425781 709.472656 L 43.28125 781.902344 L -20.164062 725.710938 Z M 43.984375 653.285156 " clip-rule="nonzero"/></clipPath><clipPath id="d159bdebd6"><path d="M 43.984375 653.285156 L 107.425781 709.472656 L 43.28125 781.902344 L -20.164062 725.710938 Z M 43.984375 653.285156 " clip-rule="nonzero"/></clipPath><clipPath id="b32d3bca56"><path d="M 26 713 L 39 713 L 39 719 L 26 719 Z M 26 713 " clip-rule="nonzero"/></clipPath><clipPath id="1c6fa44c81"><path d="M 43.984375 653.285156 L 107.425781 709.472656 L 43.28125 781.902344 L -20.164062 725.710938 Z M 43.984375 653.285156 " clip-rule="nonzero"/></clipPath><clipPath id="f3ad75f2d2"><path d="M 43.984375 653.285156 L 107.425781 709.472656 L 43.28125 781.902344 L -20.164062 725.710938 Z M 43.984375 653.285156 " clip-rule="nonzero"/></clipPath><clipPath id="e72df57e64"><rect x="0" width="750" y="0" height="750"/></clipPath></defs><rect x="-75" width="900" fill="#ffffff" y="-74.999999" height="899.999994" fill-opacity="1"/><rect x="-75" width="900" fill="#ffffff" y="-74.999999" height="899.999994" fill-opacity="1"/><g mask="url(#274f561411)"><g transform="matrix(1, 0, 0, 1, 0, -0.000000000000042435)"><g clip-path="url(#e72df57e64)"><g clip-path="url(#a4c7af6d71)"><path fill="#ffffff" d="M 749.179688 290.394531 C 749.882812 291.417969 749.753906 292.324219 749.753906 293.203125 C 749.761719 443.902344 749.761719 594.601562 749.753906 745.296875 C 749.753906 749.410156 749.746094 749.410156 745.644531 749.410156 C 617.273438 749.410156 488.910156 749.410156 360.539062 749.394531 C 359.679688 749.394531 358.441406 749.835938 358.054688 749.109375 C 357.609375 748.28125 358.550781 747.363281 359.089844 746.617188 C 362.394531 742.011719 365.023438 736.980469 368.082031 732.222656 C 371.054688 727.589844 373.847656 722.8125 377.03125 718.324219 C 379.257812 715.191406 381.484375 712.039062 384.121094 709.160156 C 387.460938 705.511719 390.277344 701.394531 393.367188 697.507812 C 397.535156 692.269531 402.550781 687.878906 407.566406 683.507812 C 410.230469 681.1875 412.863281 678.785156 415.800781 676.859375 C 420.21875 673.960938 424.601562 670.988281 429.175781 668.320312 C 434.585938 665.164062 440.191406 662.347656 445.910156 659.902344 C 451.578125 657.476562 457.242188 655.027344 463.046875 652.878906 C 471.207031 649.851562 479.050781 645.984375 487.171875 642.855469 C 491.925781 641.023438 496.644531 639.042969 501.480469 637.46875 C 506.558594 635.808594 511.242188 633.253906 516.273438 631.601562 C 521.082031 630.019531 525.492188 627.527344 530.21875 625.84375 C 536.765625 623.507812 543.039062 620.546875 549.386719 617.796875 C 555.730469 615.050781 562 612.050781 568.152344 608.816406 C 572.320312 606.628906 576.3125 604.183594 580.320312 601.777344 C 584.726562 599.121094 588.929688 596.113281 592.980469 592.882812 C 599.101562 588.003906 604.988281 582.863281 610.511719 577.335938 C 614.609375 573.234375 618.441406 568.859375 622.171875 564.410156 C 627.207031 558.40625 631.457031 551.835938 635.328125 545.078125 C 639.152344 538.394531 642.363281 531.359375 644.929688 524.042969 C 647.382812 517.042969 649.644531 509.972656 651.921875 502.921875 C 653.300781 498.632812 654.503906 494.207031 655.539062 489.78125 C 655.933594 488.070312 656.664062 486.429688 657.082031 484.71875 C 659.050781 476.617188 660.390625 468.371094 662.660156 460.332031 C 663.410156 457.667969 663.652344 454.855469 664.347656 452.171875 C 665.433594 447.96875 666.53125 443.75 667.953125 439.652344 C 669.605469 434.890625 670.488281 429.921875 672.199219 425.179688 C 675.195312 416.871094 677.378906 408.304688 680.417969 399.992188 C 682.304688 394.832031 684.589844 389.816406 686.269531 384.597656 C 688.359375 378.082031 691.386719 371.980469 694.183594 365.792969 C 696.84375 359.914062 699.75 354.128906 702.851562 348.441406 C 707.238281 340.390625 712.605469 333.035156 717.996094 325.6875 C 720.519531 322.25 723.417969 319.082031 725.933594 315.632812 C 732.691406 306.375 740.992188 298.578125 749.179688 290.394531 Z M 749.179688 290.394531 " fill-opacity="1" fill-rule="nonzero"/></g><g clip-path="url(#d2f8c9ba50)"><g clip-path="url(#4a42678630)"><g clip-path="url(#0deea8225f)"><path fill="#4352ef" d="M 705.6875 75.84375 C 707.164062 76.703125 707.542969 77.90625 708.066406 78.996094 C 797.15625 266.382812 886.242188 453.773438 975.324219 641.164062 C 977.757812 646.28125 977.742188 646.289062 972.640625 648.714844 C 812.8125 724.695312 652.988281 800.679688 493.152344 876.640625 C 492.085938 877.148438 490.800781 878.429688 489.890625 877.753906 C 488.847656 876.988281 489.476562 875.292969 489.707031 874.042969 C 491.097656 866.359375 491.398438 858.550781 492.390625 850.820312 C 493.359375 843.300781 494.007812 835.707031 495.320312 828.246094 C 496.238281 823.027344 497.148438 817.789062 498.730469 812.652344 C 500.730469 806.136719 501.804688 799.347656 503.355469 792.6875 C 505.445312 783.707031 509.089844 775.28125 512.757812 766.875 C 514.699219 762.417969 516.558594 757.867188 519.078125 753.734375 C 522.863281 747.515625 526.5625 741.222656 530.679688 735.195312 C 535.550781 728.070312 540.863281 721.25 546.539062 714.824219 C 552.160156 708.457031 557.769531 702.058594 563.722656 695.949219 C 572.09375 687.355469 579.570312 677.902344 587.835938 669.203125 C 592.667969 664.113281 597.378906 658.859375 602.46875 654.035156 C 607.804688 648.96875 612.128906 643.019531 617.414062 637.984375 C 622.464844 633.171875 626.488281 627.464844 631.375 622.570312 C 638.144531 615.792969 644.203125 608.394531 650.480469 601.222656 C 656.757812 594.050781 662.789062 586.609375 668.539062 578.945312 C 672.433594 573.757812 675.960938 568.355469 679.523438 562.988281 C 683.441406 557.082031 686.894531 550.851562 690.03125 544.4375 C 694.769531 534.746094 699.058594 524.871094 702.664062 514.730469 C 705.34375 507.203125 707.527344 499.492188 709.542969 491.75 C 712.261719 481.304688 713.671875 470.621094 714.492188 459.929688 C 715.308594 449.351562 715.144531 438.707031 714.015625 428.085938 C 712.929688 417.933594 711.570312 407.800781 710.230469 397.6875 C 709.414062 391.535156 708.296875 385.320312 706.96875 379.203125 C 706.449219 376.839844 706.386719 374.371094 705.894531 371.996094 C 703.558594 360.753906 700.351562 349.710938 698.425781 338.371094 C 697.785156 334.613281 696.425781 330.976562 695.703125 327.222656 C 694.570312 321.355469 693.445312 315.457031 692.792969 309.519531 C 692.035156 302.621094 690.195312 295.921875 689.523438 289.011719 C 688.339844 276.910156 685.996094 264.960938 684.863281 252.828125 C 684.164062 245.292969 684.042969 237.707031 683.046875 230.222656 C 681.800781 220.882812 681.960938 211.5 681.785156 202.152344 C 681.625 193.269531 681.824219 184.355469 682.320312 175.445312 C 683.019531 162.839844 685.359375 150.515625 687.726562 138.1875 C 688.835938 132.417969 690.570312 126.765625 691.660156 120.988281 C 694.605469 105.472656 700.332031 90.867188 705.6875 75.84375 Z M 705.6875 75.84375 " fill-opacity="1" fill-rule="nonzero"/></g></g></g><g clip-path="url(#adc8ff5616)"><g clip-path="url(#2fe9f576e3)"><g clip-path="url(#28a0c4d7e6)"><path fill="#4352ef" d="M 645.484375 -116.785156 C 647.292969 -116.410156 648.09375 -115.308594 649 -114.367188 C 804.519531 47.132812 960.027344 208.640625 1115.535156 370.15625 C 1119.78125 374.5625 1119.769531 374.574219 1115.371094 378.808594 C 977.632812 511.429688 839.902344 644.050781 702.152344 776.65625 C 701.230469 777.539062 700.355469 779.292969 699.191406 778.910156 C 697.859375 778.484375 697.925781 776.53125 697.730469 775.171875 C 696.519531 766.824219 694.152344 758.714844 692.523438 750.457031 C 690.933594 742.417969 689 734.414062 687.785156 726.316406 C 686.941406 720.65625 686.078125 714.976562 685.933594 709.167969 C 685.753906 701.808594 684.527344 694.480469 683.832031 687.128906 C 682.898438 677.207031 683.746094 667.320312 684.621094 657.453125 C 685.082031 652.21875 685.429688 646.921875 686.59375 641.820312 C 688.34375 634.148438 689.976562 626.4375 692.128906 618.851562 C 694.675781 609.878906 697.785156 601.070312 701.398438 592.542969 C 704.976562 584.089844 708.53125 575.609375 712.535156 567.308594 C 718.171875 555.636719 722.59375 543.390625 728.082031 531.640625 C 731.289062 524.769531 734.3125 517.769531 737.875 511.085938 C 741.609375 504.0625 744 496.488281 747.6875 489.519531 C 751.21875 482.855469 753.382812 475.625 756.710938 468.9375 C 761.328125 459.671875 765 450.015625 768.972656 440.515625 C 772.949219 431.011719 776.578125 421.324219 779.84375 411.5 C 782.054688 404.851562 783.820312 398.105469 785.632812 391.386719 C 787.621094 383.988281 789.023438 376.421875 790.039062 368.773438 C 791.574219 357.222656 792.585938 345.628906 792.804688 334.003906 C 792.96875 325.371094 792.566406 316.722656 791.980469 308.097656 C 791.183594 296.460938 788.964844 285.03125 786.144531 273.792969 C 783.351562 262.675781 779.539062 251.820312 774.742188 241.324219 C 770.148438 231.292969 765.28125 221.375 760.445312 211.46875 C 757.496094 205.445312 754.222656 199.460938 750.765625 193.644531 C 749.425781 191.402344 748.511719 188.894531 747.195312 186.628906 C 740.949219 175.910156 733.878906 165.691406 728.015625 154.730469 C 726.074219 151.097656 723.433594 147.835938 721.40625 144.238281 C 718.238281 138.613281 715.0625 132.957031 712.355469 127.09375 C 709.214844 120.285156 705.035156 114.046875 701.976562 107.199219 C 696.621094 95.203125 690.121094 83.761719 684.804688 71.714844 C 681.503906 64.234375 678.78125 56.5 675.195312 49.171875 C 670.714844 40.027344 667.664062 30.359375 664.28125 20.839844 C 661.070312 11.792969 658.21875 2.589844 655.675781 -6.710938 C 652.074219 -19.871094 650.246094 -33.296875 648.445312 -46.742188 C 647.605469 -53.035156 647.445312 -59.421875 646.585938 -65.71875 C 644.28125 -82.625 645.148438 -99.554688 645.484375 -116.785156 Z M 645.484375 -116.785156 " fill-opacity="1" fill-rule="nonzero"/></g></g></g><g clip-path="url(#0630876bf1)"><g clip-path="url(#d4f9919afb)"><g clip-path="url(#7dcbeb125f)"><path fill="#4352ef" d="M 661.230469 -13.414062 C 662.707031 -12.554688 663.085938 -11.355469 663.605469 -10.261719 C 752.699219 177.125 841.785156 364.515625 930.867188 551.90625 C 933.296875 557.023438 933.285156 557.027344 928.183594 559.453125 C 768.355469 635.4375 608.53125 711.417969 448.695312 787.382812 C 447.628906 787.890625 446.34375 789.171875 445.433594 788.496094 C 444.390625 787.730469 445.019531 786.035156 445.25 784.785156 C 446.640625 777.101562 446.941406 769.289062 447.933594 761.5625 C 448.898438 754.042969 449.550781 746.449219 450.863281 738.984375 C 451.78125 733.769531 452.691406 728.53125 454.269531 723.394531 C 456.273438 716.878906 457.347656 710.089844 458.898438 703.429688 C 460.988281 694.449219 464.632812 686.019531 468.300781 677.617188 C 470.242188 673.15625 472.101562 668.609375 474.621094 664.476562 C 478.40625 658.257812 482.105469 651.964844 486.222656 645.9375 C 491.09375 638.8125 496.40625 631.992188 502.082031 625.566406 C 507.703125 619.199219 513.3125 612.800781 519.265625 606.691406 C 527.636719 598.097656 535.113281 588.644531 543.378906 579.945312 C 548.210938 574.855469 552.921875 569.597656 558.007812 564.777344 C 563.347656 559.710938 567.671875 553.761719 572.953125 548.726562 C 578.007812 543.914062 582.03125 538.207031 586.917969 533.3125 C 593.6875 526.535156 599.746094 519.136719 606.023438 511.964844 C 612.300781 504.789062 618.332031 497.351562 624.082031 489.6875 C 627.976562 484.5 631.503906 479.097656 635.066406 473.730469 C 638.984375 467.824219 642.4375 461.59375 645.574219 455.179688 C 650.3125 445.488281 654.601562 435.613281 658.207031 425.472656 C 660.886719 417.945312 663.070312 410.234375 665.085938 402.492188 C 667.804688 392.046875 669.214844 381.363281 670.035156 370.671875 C 670.847656 360.09375 670.6875 349.445312 669.558594 338.828125 C 668.472656 328.675781 667.113281 318.542969 665.773438 308.429688 C 664.957031 302.273438 663.839844 296.0625 662.507812 289.945312 C 661.992188 287.582031 661.929688 285.113281 661.4375 282.738281 C 659.101562 271.496094 655.894531 260.453125 653.964844 249.113281 C 653.328125 245.355469 651.964844 241.714844 651.246094 237.964844 C 650.113281 232.097656 648.988281 226.199219 648.335938 220.261719 C 647.574219 213.363281 645.738281 206.660156 645.0625 199.753906 C 643.882812 187.652344 641.539062 175.703125 640.40625 163.570312 C 639.707031 156.035156 639.585938 148.449219 638.589844 140.964844 C 637.339844 131.625 637.503906 122.242188 637.328125 112.894531 C 637.164062 104.011719 637.367188 95.097656 637.863281 86.1875 C 638.5625 73.582031 640.902344 61.257812 643.269531 48.929688 C 644.378906 43.160156 646.113281 37.507812 647.203125 31.730469 C 650.148438 16.214844 655.875 1.609375 661.230469 -13.414062 Z M 661.230469 -13.414062 " fill-opacity="1" fill-rule="nonzero"/></g></g></g><g clip-path="url(#c4f2a3bd87)"><g clip-path="url(#36d09c379c)"><g clip-path="url(#0317099c74)"><path fill="#4352ef" d="M 83.722656 728.601562 C 82.824219 728.230469 81.785156 728.082031 80.824219 727.996094 C 77.632812 727.269531 73.09375 727.519531 70.4375 729.648438 C 69.792969 730.167969 69.289062 730.914062 69.214844 731.75 C 69.15625 732.597656 69.605469 733.445312 70.246094 734.015625 C 70.875 734.597656 71.6875 734.945312 72.519531 735.207031 C 75.972656 736.300781 80.71875 736.050781 83.648438 733.707031 C 85.339844 732.371094 86.183594 729.640625 83.722656 728.601562 Z M 83.722656 728.601562 " fill-opacity="1" fill-rule="nonzero"/></g></g></g><g clip-path="url(#0e31a37a25)"><g clip-path="url(#37254b44ed)"><g clip-path="url(#d07f3af026)"><path fill="#4352ef" d="M 36.992188 698.914062 C 36.09375 698.542969 35.058594 698.394531 34.09375 698.308594 C 30.902344 697.578125 26.367188 697.832031 23.707031 699.960938 C 23.0625 700.476562 22.5625 701.226562 22.488281 702.0625 C 22.425781 702.910156 22.875 703.757812 23.515625 704.328125 C 24.144531 704.910156 24.957031 705.257812 25.789062 705.519531 C 29.242188 706.613281 33.992188 706.363281 36.917969 704.019531 C 38.621094 702.664062 39.453125 699.953125 36.992188 698.914062 Z M 36.992188 698.914062 " fill-opacity="1" fill-rule="nonzero"/></g></g></g><g clip-path="url(#75ed76e5f5)"><g clip-path="url(#b1735bce89)"><g clip-path="url(#367cc873b1)"><path fill="#4352ef" d="M 80.953125 713.867188 C 83.164062 709.566406 72.496094 708.925781 70.332031 710.433594 C 67.710938 712.25 69.398438 714.828125 71.910156 715.597656 C 74.269531 716.304688 79.582031 716.527344 80.953125 713.867188 Z M 80.953125 713.867188 " fill-opacity="1" fill-rule="nonzero"/></g></g></g><g clip-path="url(#4f04ac8e02)"><g clip-path="url(#a7c155f405)"><g clip-path="url(#43ca55fe69)"><path fill="#4352ef" d="M 52.953125 747.164062 C 55.167969 742.863281 44.496094 742.21875 42.335938 743.726562 C 39.714844 745.542969 41.398438 748.125 43.914062 748.890625 C 46.269531 749.601562 51.585938 749.824219 52.953125 747.164062 Z M 52.953125 747.164062 " fill-opacity="1" fill-rule="nonzero"/></g></g></g><g clip-path="url(#1eb3739b29)"><g clip-path="url(#cb984c5bbc)"><g clip-path="url(#56c0a23877)"><path fill="#4352ef" d="M 57.402344 695.925781 C 59.613281 691.625 48.941406 690.984375 46.78125 692.492188 C 44.160156 694.308594 45.84375 696.886719 48.359375 697.65625 C 50.714844 698.363281 56.019531 698.601562 57.402344 695.925781 Z M 57.402344 695.925781 " fill-opacity="1" fill-rule="nonzero"/></g></g></g><g clip-path="url(#1d7c0e2eac)"><g clip-path="url(#91fa725fbc)"><g clip-path="url(#85cdc41135)"><path fill="#4352ef" d="M 89.640625 717.53125 C 88.058594 717.269531 85.277344 717.40625 84.21875 718.777344 C 81.148438 722.847656 89.460938 723.023438 91.421875 722.371094 C 92.292969 722.082031 93.125 721.652344 93.296875 720.769531 C 93.328125 720.582031 93.347656 720.441406 93.320312 720.261719 C 93.132812 718.636719 91.148438 717.78125 89.640625 717.53125 Z M 89.640625 717.53125 " fill-opacity="1" fill-rule="nonzero"/></g></g></g><g clip-path="url(#1afccfc101)"><g clip-path="url(#c1d4d23d15)"><g clip-path="url(#f87276dac9)"><path fill="#4352ef" d="M 20.675781 684.648438 C 19.097656 684.390625 16.3125 684.523438 15.257812 685.898438 C 12.1875 689.96875 20.5 690.144531 22.460938 689.492188 C 23.332031 689.203125 24.164062 688.773438 24.332031 687.886719 C 24.363281 687.703125 24.382812 687.5625 24.359375 687.378906 C 24.1875 685.769531 22.1875 684.898438 20.675781 684.648438 Z M 20.675781 684.648438 " fill-opacity="1" fill-rule="nonzero"/></g></g></g><g clip-path="url(#cb7301c6e0)"><g clip-path="url(#82fcc0cdf4)"><g clip-path="url(#4386f790d1)"><path fill="#4352ef" d="M 70.945312 688 C 69.363281 687.742188 66.582031 687.875 65.527344 689.25 C 62.453125 693.320312 70.765625 693.496094 72.726562 692.84375 C 73.597656 692.554688 74.429688 692.125 74.601562 691.238281 C 74.632812 691.054688 74.652344 690.914062 74.625 690.730469 C 74.453125 689.121094 72.453125 688.25 70.945312 688 Z M 70.945312 688 " fill-opacity="1" fill-rule="nonzero"/></g></g></g><g clip-path="url(#814e43aa0d)"><g clip-path="url(#425e08b600)"><g clip-path="url(#62070dcb20)"><path fill="#4352ef" d="M 27.136719 742.574219 C 25.558594 742.316406 22.773438 742.449219 21.71875 743.824219 C 18.644531 747.894531 26.960938 748.070312 28.921875 747.417969 C 29.792969 747.128906 30.625 746.699219 30.792969 745.8125 C 30.824219 745.628906 30.84375 745.488281 30.820312 745.304688 C 30.648438 743.695312 28.648438 742.824219 27.136719 742.574219 Z M 27.136719 742.574219 " fill-opacity="1" fill-rule="nonzero"/></g></g></g><g clip-path="url(#5d81ea4ce4)"><g clip-path="url(#7c322d8ff0)"><g clip-path="url(#7a89202f83)"><path fill="#4352ef" d="M 71.859375 741.574219 C 70.28125 741.3125 67.496094 741.449219 66.441406 742.820312 C 63.371094 746.890625 71.683594 747.066406 73.644531 746.414062 C 74.515625 746.125 75.347656 745.695312 75.515625 744.8125 C 75.546875 744.628906 75.566406 744.484375 75.542969 744.304688 C 75.371094 742.691406 73.371094 741.824219 71.859375 741.574219 Z M 71.859375 741.574219 " fill-opacity="1" fill-rule="nonzero"/></g></g></g><g clip-path="url(#bda35471d1)"><g clip-path="url(#9a4398264d)"><g clip-path="url(#9a1a8fbc27)"><path fill="#4352ef" d="M 0.554688 731.15625 C -1.027344 730.894531 -3.808594 731.03125 -4.863281 732.402344 C -7.9375 736.472656 0.378906 736.648438 2.339844 735.996094 C 3.207031 735.707031 4.042969 735.277344 4.210938 734.394531 C 4.242188 734.207031 4.261719 734.066406 4.234375 733.882812 C 4.066406 732.273438 2.066406 731.40625 0.554688 731.15625 Z M 0.554688 731.15625 " fill-opacity="1" fill-rule="nonzero"/></g></g></g><g clip-path="url(#e913f5aadc)"><g clip-path="url(#cf215cd4ae)"><g clip-path="url(#9dd6e5abe4)"><path fill="#4352ef" d="M 39.195312 732.269531 C 37.613281 732.011719 34.832031 732.144531 33.773438 733.519531 C 30.703125 737.589844 39.015625 737.765625 40.976562 737.113281 C 41.847656 736.824219 42.679688 736.394531 42.851562 735.507812 C 42.882812 735.324219 42.902344 735.183594 42.875 735 C 42.691406 733.40625 40.703125 732.519531 39.195312 732.269531 Z M 39.195312 732.269531 " fill-opacity="1" fill-rule="nonzero"/></g></g></g><g clip-path="url(#2fd5e881c8)"><g clip-path="url(#ed6d1f845f)"><g clip-path="url(#5cdd0f48b1)"><path fill="#4352ef" d="M 105.496094 708.015625 C 104.601562 707.039062 102.785156 706.414062 101.917969 706.28125 C 99.785156 705.984375 97.4375 706.320312 95.359375 706.890625 C 92.601562 707.660156 93.292969 710.339844 95.5625 711.476562 C 98.589844 712.988281 102.574219 712.460938 105.238281 710.441406 C 105.480469 710.257812 105.722656 710.046875 105.859375 709.773438 C 106.171875 709.121094 105.949219 708.527344 105.496094 708.015625 Z M 105.496094 708.015625 " fill-opacity="1" fill-rule="nonzero"/></g></g></g><g clip-path="url(#9a81057135)"><g clip-path="url(#2725e7c580)"><g clip-path="url(#3b262440f7)"><path fill="#4352ef" d="M 26.03125 728.308594 C 25.140625 727.332031 23.324219 726.703125 22.457031 726.574219 C 20.324219 726.273438 17.976562 726.609375 15.898438 727.183594 C 13.140625 727.949219 13.828125 730.628906 16.101562 731.765625 C 19.125 733.277344 23.109375 732.75 25.777344 730.734375 C 26.019531 730.550781 26.257812 730.335938 26.398438 730.0625 C 26.707031 729.410156 26.5 728.800781 26.03125 728.308594 Z M 26.03125 728.308594 " fill-opacity="1" fill-rule="nonzero"/></g></g></g><g clip-path="url(#bcf02d2984)"><g clip-path="url(#0ef5594929)"><g clip-path="url(#16777189c0)"><path fill="#4352ef" d="M 63.847656 734.265625 C 62.953125 733.289062 61.140625 732.660156 60.269531 732.527344 C 58.136719 732.230469 55.789062 732.566406 53.710938 733.140625 C 50.953125 733.90625 51.644531 736.585938 53.914062 737.722656 C 56.941406 739.234375 60.925781 738.707031 63.589844 736.6875 C 63.832031 736.503906 64.074219 736.292969 64.210938 736.019531 C 64.523438 735.367188 64.300781 734.773438 63.847656 734.265625 Z M 63.847656 734.265625 " fill-opacity="1" fill-rule="nonzero"/></g></g></g><g clip-path="url(#8230cb2b5d)"><g clip-path="url(#b6df99b576)"><g clip-path="url(#dca47f50cc)"><path fill="#4352ef" d="M 80.902344 697.058594 C 79.699219 697.03125 78.421875 697.089844 77.324219 697.578125 C 76.515625 697.921875 75.703125 698.898438 76.199219 700.292969 C 77.191406 703.109375 82.722656 704.109375 85.984375 703.285156 C 86.941406 703.046875 88.375 702.300781 88.757812 701.390625 C 89.425781 699.699219 87.46875 697.96875 85.046875 697.308594 C 84.269531 697.070312 82.722656 696.867188 80.902344 697.058594 Z M 80.902344 697.058594 " fill-opacity="1" fill-rule="nonzero"/></g></g></g><g clip-path="url(#eb6c861f8b)"><g clip-path="url(#73af3d70ff)"><g clip-path="url(#e938a04b95)"><path fill="#4352ef" d="M 63.050781 708.011719 C 67.273438 707.453125 67.644531 704.148438 64.578125 702.679688 C 62.773438 701.828125 60.75 701.890625 58.761719 702.148438 C 53.238281 702.851562 55.207031 709.050781 63.050781 708.011719 Z M 63.050781 708.011719 " fill-opacity="1" fill-rule="nonzero"/></g></g></g><g clip-path="url(#07229b7c5f)"><g clip-path="url(#339ceb45aa)"><g clip-path="url(#ff9b596f54)"><path fill="#4352ef" d="M 48.546875 685.988281 C 52.769531 685.429688 53.140625 682.125 50.074219 680.65625 C 48.273438 679.804688 46.246094 679.867188 44.261719 680.125 C 38.734375 680.828125 40.6875 687.015625 48.546875 685.988281 Z M 48.546875 685.988281 " fill-opacity="1" fill-rule="nonzero"/></g></g></g><g clip-path="url(#da993d4146)"><g clip-path="url(#ce2e06466d)"><g clip-path="url(#5da12c835b)"><path fill="#4352ef" d="M 61.097656 717.824219 C 59.984375 717.816406 56.941406 718.066406 55.886719 719.015625 C 53.738281 720.933594 55.953125 724.804688 61.65625 724.683594 C 64.878906 724.621094 65.847656 723.859375 67.085938 722.277344 C 67.527344 721.6875 67.730469 721.097656 67.40625 720.414062 C 66.839844 719.246094 63.722656 717.839844 61.097656 717.824219 Z M 61.097656 717.824219 " fill-opacity="1" fill-rule="nonzero"/></g></g></g><g clip-path="url(#610e197fc9)"><g clip-path="url(#d07241aa48)"><g clip-path="url(#5f20862351)"><path fill="#4352ef" d="M 12.171875 710.699219 C 11.058594 710.695312 8.015625 710.945312 6.960938 711.894531 C 4.8125 713.808594 7.027344 717.683594 12.730469 717.558594 C 15.953125 717.496094 16.921875 716.734375 18.160156 715.15625 C 18.601562 714.566406 18.804688 713.976562 18.480469 713.289062 C 17.902344 712.140625 14.796875 710.714844 12.171875 710.699219 Z M 12.171875 710.699219 " fill-opacity="1" fill-rule="nonzero"/></g></g></g><g clip-path="url(#eed34ba457)"><g clip-path="url(#773431764a)"><g clip-path="url(#140cb49347)"><path fill="#4352ef" d="M 40.914062 707.984375 C 39.832031 708.910156 39.535156 711.167969 42.589844 712.679688 C 47.304688 714.996094 53.777344 712.828125 52.316406 710.207031 C 52.078125 707.5 43.578125 705.730469 40.914062 707.984375 Z M 40.914062 707.984375 " fill-opacity="1" fill-rule="nonzero"/></g></g></g><g clip-path="url(#bafd620afc)"><g clip-path="url(#8796cc6b2f)"><g clip-path="url(#d159bdebd6)"><path fill="#4352ef" d="M 48.046875 721.675781 C 45.851562 720.605469 43.433594 720.988281 41.199219 721.738281 C 40.523438 721.960938 39.832031 722.199219 39.449219 722.839844 C 38.238281 724.871094 40.585938 726.15625 42.238281 726.636719 C 44.765625 727.363281 46.988281 726.597656 49.335938 725.601562 C 49.636719 725.472656 49.980469 725.324219 50.1875 725.058594 C 51.449219 723.574219 49.078125 722.164062 48.046875 721.675781 Z M 48.046875 721.675781 " fill-opacity="1" fill-rule="nonzero"/></g></g></g><g clip-path="url(#b32d3bca56)"><g clip-path="url(#1c6fa44c81)"><g clip-path="url(#f3ad75f2d2)"><path fill="#4352ef" d="M 36.480469 714.40625 C 31.761719 712.609375 27.867188 714.175781 27.078125 715.492188 C 26.65625 716.179688 26.808594 717.507812 27.832031 718.070312 C 29.289062 719.070312 34.53125 719.253906 36.785156 718.332031 C 38.617188 718.097656 39.660156 715.597656 36.480469 714.40625 Z M 36.480469 714.40625 " fill-opacity="1" fill-rule="nonzero"/></g></g></g></g></g></g></svg>