
<svg xmlns="http://www.w3.org/2000/svg" xmlns:xlink="http://www.w3.org/1999/xlink" width="100" zoomAndPan="magnify" viewBox="0 0 75 74.999997" height="100" preserveAspectRatio="xMidYMid meet" version="1.0"><defs><clipPath id="a75121713f"><path d="M 8.550781 7.5 L 66.300781 7.5 L 66.300781 65.25 L 8.550781 65.25 Z M 8.550781 7.5 " clip-rule="nonzero"/></clipPath><clipPath id="82f3150511"><path d="M 15.496094 20.441406 L 59.746094 20.441406 L 59.746094 52.691406 L 15.496094 52.691406 Z M 15.496094 20.441406 " clip-rule="nonzero"/></clipPath><clipPath id="ce1b08a8b5"><path d="M 20 28 L 38 28 L 38 52.691406 L 20 52.691406 Z M 20 28 " clip-rule="nonzero"/></clipPath><clipPath id="d7bf9cfddd"><path d="M 15.496094 21 L 22 21 L 22 52.691406 L 15.496094 52.691406 Z M 15.496094 21 " clip-rule="nonzero"/></clipPath><clipPath id="24b7ede193"><path d="M 15.496094 21 L 59.746094 21 L 59.746094 52.691406 L 15.496094 52.691406 Z M 15.496094 21 " clip-rule="nonzero"/></clipPath><clipPath id="ac787dd572"><path d="M 53 21 L 59.746094 21 L 59.746094 52.691406 L 53 52.691406 Z M 53 21 " clip-rule="nonzero"/></clipPath><clipPath id="137ca60f62"><path d="M 16 24 L 59.746094 24 L 59.746094 52.691406 L 16 52.691406 Z M 16 24 " clip-rule="nonzero"/></clipPath><clipPath id="1ddf2972c5"><path d="M 15.496094 20.441406 L 59.746094 20.441406 L 59.746094 41 L 15.496094 41 Z M 15.496094 20.441406 " clip-rule="nonzero"/></clipPath></defs><g clip-path="url(#a75121713f)"><path fill="#737373" d="M 8.550781 38.011719 C 8.550781 36.851562 8.550781 35.691406 8.550781 34.53125 C 8.582031 34.402344 8.617188 34.273438 8.640625 34.140625 C 8.941406 32.363281 9.089844 30.546875 9.5625 28.820312 C 11.589844 21.40625 15.941406 15.6875 22.472656 11.65625 C 25.617188 9.710938 29.042969 8.453125 32.703125 7.886719 C 33.695312 7.734375 34.691406 7.628906 35.683594 7.5 C 36.8125 7.5 37.9375 7.5 39.0625 7.5 C 39.160156 7.523438 39.257812 7.558594 39.359375 7.570312 C 40.722656 7.757812 42.109375 7.851562 43.453125 8.136719 C 49.914062 9.511719 55.28125 12.761719 59.542969 17.800781 C 62.929688 21.808594 65.046875 26.421875 65.90625 31.605469 C 66.066406 32.574219 66.167969 33.554688 66.300781 34.53125 L 66.300781 38.320312 C 66.265625 38.5 66.230469 38.679688 66.199219 38.863281 C 65.917969 40.503906 65.757812 42.179688 65.335938 43.78125 C 63.792969 49.636719 60.675781 54.523438 56.058594 58.441406 C 52.03125 61.855469 47.398438 63.992188 42.191406 64.855469 C 41.253906 65.011719 40.308594 65.121094 39.371094 65.25 L 35.785156 65.25 C 35.246094 65.1875 34.707031 65.121094 34.164062 65.0625 C 29.910156 64.609375 25.964844 63.246094 22.324219 61.007812 C 17.917969 58.292969 14.472656 54.652344 12 50.101562 C 10.464844 47.273438 9.433594 44.277344 8.9375 41.097656 C 8.777344 40.074219 8.675781 39.042969 8.550781 38.011719 Z M 62.828125 36.316406 C 62.890625 22.480469 51.320312 10.527344 36.585938 10.96875 C 23.183594 11.371094 11.664062 22.59375 12.019531 37.074219 C 12.355469 50.644531 23.597656 61.828125 37.472656 61.78125 C 51.515625 61.738281 62.847656 50.375 62.828125 36.316406 Z M 62.828125 36.316406 " fill-opacity="1" fill-rule="nonzero"/></g><path fill="#f1f2f2" d="M 62.828125 36.316406 C 62.847656 50.375 51.515625 61.738281 37.472656 61.78125 C 23.597656 61.828125 12.355469 50.644531 12.019531 37.074219 C 11.664062 22.59375 23.183594 11.371094 36.585938 10.96875 C 51.320312 10.527344 62.890625 22.480469 62.824219 36.316406 Z M 37.59375 48.46875 L 37.59375 48.476562 C 43.101562 48.476562 48.609375 48.472656 54.121094 48.476562 C 54.976562 48.476562 55.59375 47.910156 55.597656 47.070312 C 55.601562 45.433594 55.589844 43.796875 55.589844 42.160156 C 55.585938 38.902344 55.589844 35.644531 55.589844 32.386719 C 55.589844 30.359375 55.589844 28.328125 55.578125 26.300781 C 55.574219 25.570312 54.941406 24.945312 54.226562 24.9375 C 53.222656 24.929688 52.214844 24.925781 51.210938 24.925781 C 41.195312 24.925781 31.183594 24.925781 21.171875 24.925781 C 20.125 24.925781 19.574219 25.472656 19.570312 26.523438 C 19.570312 26.984375 19.582031 27.445312 19.582031 27.90625 C 19.582031 34.285156 19.582031 40.664062 19.585938 47.042969 C 19.585938 47.949219 20.105469 48.46875 21.011719 48.46875 C 26.539062 48.46875 32.066406 48.46875 37.59375 48.46875 Z M 37.59375 48.46875 " fill-opacity="1" fill-rule="nonzero"/><path fill="#737373" d="M 56.195312 44.070312 C 56.195312 43.445312 56.191406 42.796875 56.191406 42.160156 C 56.191406 40.371094 56.191406 38.585938 56.191406 36.796875 C 56.191406 35.328125 56.191406 33.859375 56.191406 32.386719 C 56.191406 32.011719 56.191406 31.636719 56.191406 31.261719 C 56.191406 29.632812 56.191406 27.953125 56.183594 26.296875 C 56.175781 25.242188 55.285156 24.34375 54.234375 24.335938 C 53.304688 24.328125 52.316406 24.324219 51.210938 24.324219 C 45.148438 24.324219 39.089844 24.324219 33.027344 24.324219 C 29.074219 24.324219 25.125 24.324219 21.171875 24.324219 C 19.796875 24.324219 18.972656 25.144531 18.96875 26.523438 C 18.96875 26.773438 18.96875 27.023438 18.972656 27.269531 C 18.976562 27.476562 18.976562 27.695312 18.976562 27.90625 C 18.980469 30.148438 18.980469 32.386719 18.980469 34.628906 C 18.980469 38.699219 18.980469 42.90625 18.980469 47.046875 C 18.984375 47.652344 19.171875 48.164062 19.535156 48.523438 C 19.894531 48.882812 20.402344 49.070312 21.011719 49.070312 C 25.15625 49.074219 29.371094 49.074219 33.445312 49.074219 L 36.988281 49.074219 C 36.988281 49.074219 36.988281 49.078125 36.988281 49.078125 L 41.660156 49.078125 C 45.746094 49.078125 49.96875 49.078125 54.121094 49.078125 C 55.320312 49.078125 56.195312 48.234375 56.199219 47.074219 C 56.203125 46.070312 56.199219 45.054688 56.195312 44.070312 Z M 53.058594 28.808594 L 53.058594 44.414062 L 42.679688 36.863281 L 53.015625 28.839844 Z M 49.367188 27.628906 C 47.527344 29.054688 45.65625 30.5 43.808594 31.929688 C 43.058594 32.507812 42.304688 33.089844 41.550781 33.671875 C 40.582031 34.417969 39.582031 35.191406 38.597656 35.953125 C 38.417969 36.089844 38.242188 36.234375 38.070312 36.371094 C 37.804688 36.585938 37.550781 36.789062 37.292969 36.980469 C 36.628906 36.480469 35.96875 35.953125 35.328125 35.445312 L 35.179688 35.324219 C 34.683594 34.925781 34.179688 34.519531 33.695312 34.128906 C 33.222656 33.75 32.734375 33.355469 32.253906 32.96875 C 30.894531 31.878906 29.664062 30.898438 28.402344 29.902344 C 27.648438 29.304688 26.878906 28.703125 26.132812 28.125 C 25.882812 27.925781 25.628906 27.730469 25.371094 27.527344 L 49.496094 27.527344 C 49.453125 27.5625 49.410156 27.59375 49.367188 27.628906 Z M 34.644531 38.96875 C 34.703125 39.015625 34.761719 39.0625 34.820312 39.109375 C 35.246094 39.4375 35.683594 39.773438 36.105469 40.121094 C 36.8125 40.703125 37.753906 40.722656 38.449219 40.164062 C 38.570312 40.066406 38.691406 39.972656 38.8125 39.875 C 39.214844 39.550781 39.628906 39.21875 40.042969 38.90625 C 41.835938 40.199219 43.648438 41.519531 45.402344 42.800781 C 46.007812 43.242188 46.613281 43.683594 47.21875 44.125 C 48.132812 44.789062 49.035156 45.445312 49.984375 46.132812 L 24.953125 46.132812 L 34.644531 38.972656 Z M 32.046875 36.90625 L 22.105469 44.25 L 22.105469 29.007812 Z M 32.046875 36.90625 " fill-opacity="1" fill-rule="nonzero"/><path fill="#f1f2f2" d="M 23.671875 26.925781 L 51.234375 26.925781 C 50.714844 27.335938 50.226562 27.722656 49.734375 28.105469 C 47.882812 29.539062 46.03125 30.972656 44.179688 32.40625 C 42.441406 33.746094 40.703125 35.085938 38.964844 36.429688 C 38.503906 36.789062 38.058594 37.171875 37.582031 37.515625 C 37.460938 37.601562 37.195312 37.660156 37.097656 37.589844 C 36.320312 37.007812 35.5625 36.402344 34.804688 35.792969 C 33.824219 35.011719 32.855469 34.222656 31.875 33.4375 C 30.597656 32.414062 29.316406 31.390625 28.027344 30.375 C 26.792969 29.398438 25.550781 28.4375 24.316406 27.464844 C 24.136719 27.324219 23.964844 27.171875 23.671875 26.925781 Z M 23.671875 26.925781 " fill-opacity="1" fill-rule="nonzero"/><path fill="#f1f2f2" d="M 23.121094 46.734375 C 27.007812 43.863281 30.800781 41.058594 34.652344 38.214844 C 35.242188 38.675781 35.875 39.152344 36.488281 39.65625 C 36.960938 40.050781 37.59375 40.078125 38.074219 39.695312 C 38.648438 39.234375 39.214844 38.765625 39.808594 38.332031 C 39.914062 38.253906 40.179688 38.261719 40.289062 38.339844 C 42.726562 40.097656 45.148438 41.871094 47.574219 43.636719 C 48.960938 44.648438 50.355469 45.65625 51.84375 46.734375 Z M 23.121094 46.734375 " fill-opacity="1" fill-rule="nonzero"/><path fill="#f1f2f2" d="M 41.679688 36.878906 C 45.683594 33.769531 49.632812 30.707031 53.660156 27.578125 L 53.660156 45.597656 C 49.667969 42.695312 45.710938 39.8125 41.679688 36.878906 Z M 41.679688 36.878906 " fill-opacity="1" fill-rule="nonzero"/><path fill="#f1f2f2" d="M 33.039062 36.921875 C 29.179688 39.773438 25.375 42.585938 21.503906 45.445312 L 21.503906 27.757812 C 25.359375 30.820312 29.171875 33.851562 33.039062 36.921875 Z M 33.039062 36.921875 " fill-opacity="1" fill-rule="nonzero"/><g clip-path="url(#82f3150511)"><path fill="#f2f2f2" d="M 56.535156 52.574219 L 18.699219 52.574219 C 17.21875 52.574219 15.980469 51.402344 15.980469 49.890625 L 15.980469 23.660156 C 15.984375 23.300781 16.050781 22.953125 16.191406 22.621094 C 16.328125 22.289062 16.523438 21.996094 16.78125 21.738281 C 17.035156 21.484375 17.328125 21.289062 17.660156 21.148438 C 17.992188 21.011719 18.339844 20.941406 18.699219 20.941406 L 56.535156 20.941406 C 58.011719 20.941406 59.25 22.164062 59.25 23.664062 L 59.25 49.855469 C 59.214844 51.40625 58.011719 52.578125 56.535156 52.578125 Z M 56.535156 52.574219 " fill-opacity="1" fill-rule="nonzero"/></g><g clip-path="url(#ce1b08a8b5)"><path fill="#221f1f" d="M 21.390625 52.574219 L 37.578125 40.707031 L 37.683594 40.019531 L 20.984375 28 L 20.953125 51.992188 Z M 21.390625 52.574219 " fill-opacity="0.1" fill-rule="nonzero"/></g><g clip-path="url(#d7bf9cfddd)"><path fill="#d44c3d" d="M 18.699219 52.574219 C 17.199219 52.574219 15.980469 51.402344 15.980469 49.890625 L 15.980469 23.625 C 15.980469 22.109375 17.199219 21.835938 18.699219 21.835938 C 20.195312 21.835938 21.414062 22.148438 21.414062 23.625 L 21.414062 52.574219 Z M 18.699219 52.574219 " fill-opacity="1" fill-rule="nonzero"/></g><g clip-path="url(#24b7ede193)"><path fill="#d44c3d" d="M 18.699219 22.25 C 20.621094 22.25 21 22.835938 21 23.625 L 21 52.195312 L 18.699219 52.195312 C 17.425781 52.195312 16.394531 51.164062 16.394531 49.886719 L 16.394531 23.625 C 16.359375 22.8125 16.773438 22.25 18.699219 22.25 Z M 18.699219 21.871094 C 17.199219 21.871094 15.980469 22.179688 15.980469 23.625 L 15.980469 49.855469 C 15.976562 50.214844 16.042969 50.566406 16.179688 50.902344 C 16.316406 51.238281 16.511719 51.53125 16.765625 51.789062 C 17.023438 52.046875 17.316406 52.242188 17.652344 52.378906 C 17.988281 52.515625 18.335938 52.578125 18.699219 52.574219 L 21.414062 52.574219 L 21.414062 23.625 C 21.390625 22.144531 20.210938 21.871094 18.699219 21.871094 Z M 56.535156 22.25 C 58.285156 22.25 58.835938 22.59375 58.835938 23.558594 L 58.835938 49.925781 C 58.835938 51.199219 57.804688 52.230469 56.535156 52.230469 L 54.230469 52.230469 L 54.230469 23.558594 C 54.195312 22.558594 54.78125 22.25 56.535156 22.25 Z M 56.535156 21.871094 C 55.023438 21.871094 53.820312 22.074219 53.820312 23.554688 L 53.820312 52.609375 L 56.535156 52.609375 C 58.046875 52.609375 59.25 51.390625 59.25 49.886719 L 59.25 23.523438 C 59.214844 22.042969 58.011719 21.871094 56.535156 21.871094 Z M 56.535156 21.871094 " fill-opacity="1" fill-rule="nonzero"/></g><g clip-path="url(#ac787dd572)"><path fill="#d44c3d" d="M 56.535156 52.574219 L 53.820312 52.574219 L 53.820312 23.558594 C 53.820312 22.042969 55.035156 21.871094 56.535156 21.871094 C 58.03125 21.871094 59.25 22.078125 59.25 23.558594 L 59.25 49.925781 C 59.242188 50.28125 59.167969 50.621094 59.027344 50.945312 C 58.886719 51.273438 58.6875 51.558594 58.433594 51.808594 C 58.179688 52.054688 57.886719 52.246094 57.558594 52.378906 C 57.230469 52.511719 56.886719 52.578125 56.535156 52.574219 Z M 56.535156 52.574219 " fill-opacity="1" fill-rule="nonzero"/></g><g clip-path="url(#137ca60f62)"><path fill="#221f1f" d="M 44.953125 52.574219 L 16.222656 24.777344 L 17.734375 25.398438 L 37.75 39.824219 L 59.25 24.003906 L 59.25 49.925781 C 59.246094 50.28125 59.175781 50.628906 59.039062 50.957031 C 58.898438 51.289062 58.703125 51.582031 58.449219 51.832031 C 58.191406 52.085938 57.898438 52.277344 57.566406 52.414062 C 57.234375 52.546875 56.890625 52.613281 56.53125 52.609375 Z M 44.953125 52.574219 " fill-opacity="0.08" fill-rule="nonzero"/></g><g clip-path="url(#1ddf2972c5)"><path fill="#d44c3d" d="M 37.566406 40.738281 L 17.152344 25.898438 C 15.933594 25.003906 15.605469 23.285156 16.496094 22.078125 C 17.390625 20.871094 19.109375 20.597656 20.347656 21.492188 L 37.597656 34.0625 L 54.953125 21.320312 C 56.171875 20.429688 57.839844 20.703125 58.734375 21.941406 C 59.625 23.160156 59.351562 24.835938 58.113281 25.730469 Z M 37.566406 40.738281 " fill-opacity="1" fill-rule="nonzero"/><path fill="#d44c3d" d="M 56.535156 21.214844 C 57.257812 21.214844 57.976562 21.5625 58.425781 22.179688 C 59.148438 23.214844 58.9375 24.660156 57.910156 25.433594 L 37.566406 40.257812 L 17.390625 25.589844 C 16.359375 24.832031 16.085938 23.351562 16.792969 22.339844 C 17.207031 21.71875 17.929688 21.339844 18.71875 21.339844 C 19.230469 21.339844 19.714844 21.476562 20.09375 21.785156 L 37.308594 34.320312 L 37.546875 34.460938 L 37.789062 34.320312 L 55.125 21.59375 C 55.574219 21.351562 56.019531 21.214844 56.535156 21.214844 Z M 56.535156 20.804688 C 55.984375 20.804688 55.398438 20.941406 54.953125 21.316406 L 37.597656 34.058594 L 20.3125 21.457031 C 19.867188 21.113281 19.28125 20.941406 18.699219 20.941406 C 17.839844 20.976562 16.980469 21.355469 16.464844 22.082031 C 15.605469 23.300781 15.949219 24.972656 17.152344 25.867188 L 37.566406 40.738281 L 58.113281 25.726562 C 58.402344 25.515625 58.640625 25.253906 58.828125 24.949219 C 59.015625 24.644531 59.140625 24.3125 59.195312 23.960938 C 59.253906 23.605469 59.242188 23.253906 59.164062 22.902344 C 59.082031 22.554688 58.941406 22.230469 58.734375 21.9375 C 58.183594 21.214844 57.359375 20.800781 56.535156 20.800781 Z M 56.535156 20.804688 " fill-opacity="1" fill-rule="nonzero"/></g></svg>